<svg width="30" height="30" viewBox="0 0 30 30" fill="none" xmlns="http://www.w3.org/2000/svg">
<path d="M20.3616 14.4382C20.7858 14.0846 20.8432 13.454 20.4896 13.0298C20.136 12.6055 19.5055 12.5482 19.0812 12.9017L20.3616 14.4382ZM14.7495 17.8132L14.1093 18.5814C14.4802 18.8904 15.0188 18.8904 15.3897 18.5814L14.7495 17.8132ZM10.4178 12.9017C9.99352 12.5482 9.36296 12.6055 9.00939 13.0298C8.65583 13.454 8.71315 14.0846 9.13743 14.4382L10.4178 12.9017ZM19.0812 12.9017L14.1093 17.045L15.3897 18.5814L20.3616 14.4382L19.0812 12.9017ZM15.3897 17.045L10.4178 12.9017L9.13743 14.4382L14.1093 18.5814L15.3897 17.045ZM4.75 15C4.75 9.33908 9.33908 4.75 15 4.75L15 2.75C8.23451 2.75 2.75 8.23451 2.75 15L4.75 15ZM15 4.75C20.6609 4.75 25.25 9.33908 25.25 15H27.25C27.25 8.23451 21.7655 2.75 15 2.75L15 4.75ZM25.25 15C25.25 20.6609 20.6609 25.25 15 25.25V27.25C21.7655 27.25 27.25 21.7655 27.25 15H25.25ZM15 25.25C9.33908 25.25 4.75 20.6609 4.75 15L2.75 15C2.75 21.7655 8.23451 27.25 15 27.25V25.25Z" fill="white"/>
</svg>
