<svg width="30" height="30" viewBox="0 0 30 30" fill="none" xmlns="http://www.w3.org/2000/svg">
<path d="M9.63844 15.5618C9.21416 15.9154 9.15684 16.546 9.5104 16.9702C9.86397 17.3945 10.4945 17.4518 10.9188 17.0983L9.63844 15.5618ZM15.2505 12.1868L15.8907 11.4186C15.5198 11.1096 14.9812 11.1096 14.6103 11.4186L15.2505 12.1868ZM19.5822 17.0983C20.0065 17.4518 20.637 17.3945 20.9906 16.9702C21.3442 16.546 21.2868 15.9154 20.8626 15.5618L19.5822 17.0983ZM10.9188 17.0983L15.8907 12.955L14.6103 11.4186L9.63844 15.5618L10.9188 17.0983ZM14.6103 12.955L19.5822 17.0983L20.8626 15.5618L15.8907 11.4186L14.6103 12.955ZM25.25 15C25.25 20.6609 20.6609 25.25 15 25.25V27.25C21.7655 27.25 27.25 21.7655 27.25 15H25.25ZM15 25.25C9.33908 25.25 4.75 20.6609 4.75 15H2.75C2.75 21.7655 8.23451 27.25 15 27.25V25.25ZM4.75 15C4.75 9.33908 9.33908 4.75 15 4.75V2.75C8.23451 2.75 2.75 8.23451 2.75 15H4.75ZM15 4.75C20.6609 4.75 25.25 9.33908 25.25 15H27.25C27.25 8.23451 21.7655 2.75 15 2.75V4.75Z" fill="white"/>
</svg>
